<svg width="403" height="403" xmlns="http://www.w3.org/2000/svg" xmlns:xlink="http://www.w3.org/1999/xlink"><defs><path d="M175.437 381.157l-19.467 7.048-30.26-27.632-40.935-1.858-17.382-37.108-37.108-17.382-1.858-40.935L.795 233.03l13.95-38.53-13.95-38.53 27.632-30.26 1.858-40.935 37.108-17.382 17.382-37.108 40.935-1.858L155.97.795l38.53 13.95L233.03.794l30.26 27.632 40.935 1.858 17.382 37.108 37.108 17.382 1.858 40.935 27.632 30.26-13.95 38.53 13.95 38.53-27.632 30.26-1.858 40.935-37.108 17.382-17.382 37.108-40.935 1.858-30.26 27.632-19.467-7.048a56 56 0 00-38.126 0z" id="a"/></defs><g fill="none" fill-rule="evenodd"><g transform="translate(7 7)"><use stroke="#F9F6F2" stroke-width="13" fill="#E1871E" xlink:href="#a"/><use stroke="#E1871E" stroke-width="8" xlink:href="#a"/></g><text font-family="Arvo" font-size="40" fill="#F6F6F6" transform="translate(7 7)"><tspan x="69" y="205">skip that shit</tspan></text></g></svg>